<mxfile host="app.diagrams.net" modified="2022-05-08T12:22:10.268Z" agent="5.0 (Windows NT 10.0; Win64; x64) AppleWebKit/537.36 (KHTML, like Gecko) Chrome/101.0.4951.54 Safari/537.36" etag="DRz1MvmpIMh7xCd0OOnH" version="18.0.2" type="github">
  <diagram id="C5RBs43oDa-KdzZeNtuy" name="Page-1">
    <mxGraphModel dx="1422" dy="754" grid="1" gridSize="10" guides="1" tooltips="1" connect="1" arrows="1" fold="1" page="1" pageScale="1" pageWidth="827" pageHeight="1169" background="#114B5F" math="0" shadow="1">
      <root>
        <mxCell id="WIyWlLk6GJQsqaUBKTNV-0" />
        <mxCell id="BjCOgWTQ0v4oVm3lDu5Z-0" value="Untitled Layer" style="locked=1;" parent="WIyWlLk6GJQsqaUBKTNV-0" />
        <mxCell id="WIyWlLk6GJQsqaUBKTNV-1" style="" parent="WIyWlLk6GJQsqaUBKTNV-0" />
        <mxCell id="RY79CGh1DefwJotHBHrP-38" value="Windows" style="swimlane;horizontal=0;rounded=0;shadow=0;glass=0;dashed=1;sketch=0;fontColor=#000000;strokeColor=default;fillColor=#FF3399;gradientColor=#FF99CC;swimlaneFillColor=#003300;" parent="WIyWlLk6GJQsqaUBKTNV-1" vertex="1">
          <mxGeometry x="20" y="120" width="790" height="550" as="geometry" />
        </mxCell>
        <mxCell id="RY79CGh1DefwJotHBHrP-21" value="Wifi" style="shape=hexagon;perimeter=hexagonPerimeter2;whiteSpace=wrap;html=1;fixedSize=1;fillColor=#F45B69;strokeColor=#028090;fontColor=#E4FDE1;" parent="RY79CGh1DefwJotHBHrP-38" vertex="1">
          <mxGeometry x="98" y="425" width="120" height="80" as="geometry" />
        </mxCell>
        <mxCell id="RY79CGh1DefwJotHBHrP-39" value="" style="sketch=0;aspect=fixed;html=1;points=[];align=center;image;fontSize=12;image=img/lib/mscae/VM_Windows_Non_Azure.svg;rounded=0;shadow=0;glass=0;dashed=1;fontColor=#000000;strokeColor=default;fillColor=#FF3399;gradientColor=#FF99CC;" parent="RY79CGh1DefwJotHBHrP-38" vertex="1">
          <mxGeometry x="370" y="490" width="50" height="46" as="geometry" />
        </mxCell>
        <mxCell id="RY79CGh1DefwJotHBHrP-20" value="Hyper-V" style="swimlane;rounded=0;shadow=0;sketch=0;fontColor=#FFFFCC;strokeColor=default;fillColor=#67AB9F;gradientColor=#336600;dashed=1;glass=0;swimlaneLine=1;swimlaneFillColor=#660066;" parent="WIyWlLk6GJQsqaUBKTNV-1" vertex="1">
          <mxGeometry x="70" y="140" width="720" height="330" as="geometry" />
        </mxCell>
        <mxCell id="RY79CGh1DefwJotHBHrP-22" value="&lt;font color=&quot;#028090&quot;&gt;Bridge&lt;/font&gt;" style="text;html=1;strokeColor=none;fillColor=none;align=center;verticalAlign=middle;whiteSpace=wrap;rounded=0;fontColor=#E4FDE1;" parent="RY79CGh1DefwJotHBHrP-20" vertex="1">
          <mxGeometry x="110" y="360" width="60" height="30" as="geometry" />
        </mxCell>
        <mxCell id="lQiroo41-iCrkgHtppVC-14" value="Wired" style="shape=hexagon;perimeter=hexagonPerimeter2;whiteSpace=wrap;html=1;fixedSize=1;fillColor=#F45B69;strokeColor=#028090;fontColor=#E4FDE1;" parent="RY79CGh1DefwJotHBHrP-20" vertex="1">
          <mxGeometry x="532" y="405" width="120" height="80" as="geometry" />
        </mxCell>
        <mxCell id="lQiroo41-iCrkgHtppVC-25" value="&lt;font color=&quot;#028090&quot;&gt;Bridge&lt;/font&gt;" style="text;html=1;strokeColor=none;fillColor=none;align=center;verticalAlign=middle;whiteSpace=wrap;rounded=0;fontColor=#E4FDE1;" parent="RY79CGh1DefwJotHBHrP-20" vertex="1">
          <mxGeometry x="592" y="360" width="60" height="30" as="geometry" />
        </mxCell>
        <mxCell id="lQiroo41-iCrkgHtppVC-35" value="&lt;font color=&quot;#ff0080&quot;&gt;172.16.1.2&lt;/font&gt;" style="text;html=1;strokeColor=none;fillColor=none;align=center;verticalAlign=middle;whiteSpace=wrap;rounded=0;fontColor=#E4FDE1;" parent="RY79CGh1DefwJotHBHrP-20" vertex="1">
          <mxGeometry x="460" y="50" width="60" height="30" as="geometry" />
        </mxCell>
        <mxCell id="lQiroo41-iCrkgHtppVC-36" style="edgeStyle=orthogonalEdgeStyle;rounded=0;orthogonalLoop=1;jettySize=auto;html=1;exitX=0.5;exitY=1;exitDx=0;exitDy=0;fontSize=19;fontColor=#E4FDE1;labelBackgroundColor=#114B5F;strokeColor=#028090;" parent="RY79CGh1DefwJotHBHrP-20" source="lQiroo41-iCrkgHtppVC-35" target="lQiroo41-iCrkgHtppVC-35" edge="1">
          <mxGeometry relative="1" as="geometry" />
        </mxCell>
        <mxCell id="RY79CGh1DefwJotHBHrP-35" value="&lt;font color=&quot;#ff0080&quot;&gt;hn2&lt;br&gt;&lt;/font&gt;" style="text;html=1;strokeColor=none;fillColor=none;align=center;verticalAlign=middle;whiteSpace=wrap;rounded=0;fontColor=#E4FDE1;" parent="RY79CGh1DefwJotHBHrP-20" vertex="1">
          <mxGeometry x="180" y="30" width="60" height="30" as="geometry" />
        </mxCell>
        <mxCell id="RY79CGh1DefwJotHBHrP-36" value="&lt;font color=&quot;#ff0080&quot;&gt;hn2&lt;br&gt;&lt;/font&gt;" style="text;html=1;strokeColor=none;fillColor=none;align=center;verticalAlign=middle;whiteSpace=wrap;rounded=0;fontColor=#E4FDE1;" parent="RY79CGh1DefwJotHBHrP-20" vertex="1">
          <mxGeometry x="460" y="30" width="60" height="30" as="geometry" />
        </mxCell>
        <mxCell id="RY79CGh1DefwJotHBHrP-37" value="&lt;font color=&quot;#ff0080&quot;&gt;172.16.1.1&lt;br&gt;&lt;/font&gt;" style="text;html=1;strokeColor=none;fillColor=none;align=center;verticalAlign=middle;whiteSpace=wrap;rounded=0;fontColor=#E4FDE1;" parent="RY79CGh1DefwJotHBHrP-20" vertex="1">
          <mxGeometry x="180" y="50" width="60" height="30" as="geometry" />
        </mxCell>
        <mxCell id="RY79CGh1DefwJotHBHrP-40" value="" style="verticalLabelPosition=bottom;html=1;verticalAlign=top;align=center;strokeColor=none;fillColor=#FFB570;shape=mxgraph.azure.virtual_machine;rounded=0;shadow=0;glass=0;dashed=1;sketch=0;fontColor=#000000;" parent="RY79CGh1DefwJotHBHrP-20" vertex="1">
          <mxGeometry x="319" y="280" width="50" height="40" as="geometry" />
        </mxCell>
        <mxCell id="RY79CGh1DefwJotHBHrP-1" value="&lt;font color=&quot;#ffffcc&quot;&gt;Int&lt;/font&gt;" style="rhombus;whiteSpace=wrap;html=1;rounded=0;sketch=0;fontColor=#028090;strokeColor=#028090;fillColor=#F45B69;" parent="RY79CGh1DefwJotHBHrP-20" vertex="1">
          <mxGeometry x="304" y="40" width="80" height="80" as="geometry" />
        </mxCell>
        <mxCell id="lQiroo41-iCrkgHtppVC-0" value="UNA-01&lt;br&gt;(FreeBSD)" style="rounded=1;whiteSpace=wrap;html=1;fillColor=#F45B69;strokeColor=#028090;fontColor=#E4FDE1;" parent="WIyWlLk6GJQsqaUBKTNV-1" vertex="1">
          <mxGeometry x="120" y="190" width="120" height="60" as="geometry" />
        </mxCell>
        <mxCell id="lQiroo41-iCrkgHtppVC-1" value="UNA-02&lt;br&gt;(FreeBSD)" style="rounded=1;whiteSpace=wrap;html=1;fillColor=#F45B69;strokeColor=#028090;fontColor=#E4FDE1;" parent="WIyWlLk6GJQsqaUBKTNV-1" vertex="1">
          <mxGeometry x="604" y="190" width="120" height="60" as="geometry" />
        </mxCell>
        <mxCell id="lQiroo41-iCrkgHtppVC-6" value="" style="endArrow=classic;html=1;rounded=0;entryX=0.5;entryY=0;entryDx=0;entryDy=0;fillColor=#dae8fc;strokeColor=#6c8ebf;labelBackgroundColor=#114B5F;fontColor=#E4FDE1;" parent="WIyWlLk6GJQsqaUBKTNV-1" source="lQiroo41-iCrkgHtppVC-0" target="lQiroo41-iCrkgHtppVC-8" edge="1">
          <mxGeometry width="50" height="50" relative="1" as="geometry">
            <mxPoint x="310" y="450" as="sourcePoint" />
            <mxPoint x="180" y="420" as="targetPoint" />
          </mxGeometry>
        </mxCell>
        <mxCell id="lQiroo41-iCrkgHtppVC-8" value="EX-01" style="rhombus;whiteSpace=wrap;html=1;fillColor=#F45B69;strokeColor=#028090;fontColor=#E4FDE1;" parent="WIyWlLk6GJQsqaUBKTNV-1" vertex="1">
          <mxGeometry x="138" y="370" width="80" height="80" as="geometry" />
        </mxCell>
        <mxCell id="lQiroo41-iCrkgHtppVC-9" value="" style="endArrow=classic;html=1;rounded=0;exitX=0.008;exitY=0.883;exitDx=0;exitDy=0;exitPerimeter=0;entryX=0.5;entryY=0;entryDx=0;entryDy=0;fillColor=#dae8fc;strokeColor=#6c8ebf;labelBackgroundColor=#114B5F;fontColor=#E4FDE1;" parent="WIyWlLk6GJQsqaUBKTNV-1" source="lQiroo41-iCrkgHtppVC-1" target="lQiroo41-iCrkgHtppVC-8" edge="1">
          <mxGeometry width="50" height="50" relative="1" as="geometry">
            <mxPoint x="414" y="450" as="sourcePoint" />
            <mxPoint x="464" y="400" as="targetPoint" />
          </mxGeometry>
        </mxCell>
        <mxCell id="lQiroo41-iCrkgHtppVC-10" value="EX-02" style="rhombus;whiteSpace=wrap;html=1;fillColor=#F45B69;strokeColor=#028090;fontColor=#E4FDE1;" parent="WIyWlLk6GJQsqaUBKTNV-1" vertex="1">
          <mxGeometry x="622" y="370" width="80" height="80" as="geometry" />
        </mxCell>
        <mxCell id="lQiroo41-iCrkgHtppVC-11" value="" style="endArrow=classic;html=1;rounded=0;exitX=1;exitY=1;exitDx=0;exitDy=0;entryX=0.5;entryY=0;entryDx=0;entryDy=0;fillColor=#d5e8d4;strokeColor=#82b366;labelBackgroundColor=#114B5F;fontColor=#E4FDE1;" parent="WIyWlLk6GJQsqaUBKTNV-1" source="lQiroo41-iCrkgHtppVC-0" target="lQiroo41-iCrkgHtppVC-10" edge="1">
          <mxGeometry width="50" height="50" relative="1" as="geometry">
            <mxPoint x="414" y="450" as="sourcePoint" />
            <mxPoint x="464" y="400" as="targetPoint" />
          </mxGeometry>
        </mxCell>
        <mxCell id="lQiroo41-iCrkgHtppVC-12" value="" style="endArrow=classic;html=1;rounded=0;exitX=0.5;exitY=1;exitDx=0;exitDy=0;entryX=0.5;entryY=0;entryDx=0;entryDy=0;fillColor=#d5e8d4;strokeColor=#82b366;labelBackgroundColor=#114B5F;fontColor=#E4FDE1;" parent="WIyWlLk6GJQsqaUBKTNV-1" source="lQiroo41-iCrkgHtppVC-1" target="lQiroo41-iCrkgHtppVC-10" edge="1">
          <mxGeometry width="50" height="50" relative="1" as="geometry">
            <mxPoint x="534" y="450" as="sourcePoint" />
            <mxPoint x="584" y="400" as="targetPoint" />
          </mxGeometry>
        </mxCell>
        <mxCell id="lQiroo41-iCrkgHtppVC-15" value="&lt;font color=&quot;#769bd1&quot;&gt;hn0&lt;/font&gt;" style="text;html=1;align=center;verticalAlign=middle;whiteSpace=wrap;rounded=0;fontColor=#E4FDE1;" parent="WIyWlLk6GJQsqaUBKTNV-1" vertex="1">
          <mxGeometry x="130" y="250" width="60" height="30" as="geometry" />
        </mxCell>
        <mxCell id="lQiroo41-iCrkgHtppVC-16" value="hn1" style="text;html=1;align=center;verticalAlign=middle;resizable=0;points=[];autosize=1;strokeColor=none;fillColor=none;fontColor=#E4FDE1;" parent="WIyWlLk6GJQsqaUBKTNV-1" vertex="1">
          <mxGeometry x="210" y="255" width="40" height="20" as="geometry" />
        </mxCell>
        <mxCell id="lQiroo41-iCrkgHtppVC-19" value="&lt;font color=&quot;#769bd1&quot;&gt;hn0&lt;/font&gt;" style="text;html=1;align=center;verticalAlign=middle;whiteSpace=wrap;rounded=0;fontColor=#E4FDE1;" parent="WIyWlLk6GJQsqaUBKTNV-1" vertex="1">
          <mxGeometry x="580" y="250" width="60" height="30" as="geometry" />
        </mxCell>
        <mxCell id="lQiroo41-iCrkgHtppVC-21" value="hn1" style="text;html=1;align=center;verticalAlign=middle;resizable=0;points=[];autosize=1;strokeColor=none;fillColor=none;fontColor=#E4FDE1;" parent="WIyWlLk6GJQsqaUBKTNV-1" vertex="1">
          <mxGeometry x="664" y="255" width="40" height="20" as="geometry" />
        </mxCell>
        <mxCell id="lQiroo41-iCrkgHtppVC-22" value="" style="endArrow=classic;html=1;rounded=0;fontColor=#E4FDE1;exitX=0.5;exitY=1;exitDx=0;exitDy=0;labelBackgroundColor=#114B5F;strokeColor=#028090;entryX=0.5;entryY=0;entryDx=0;entryDy=0;" parent="WIyWlLk6GJQsqaUBKTNV-1" source="lQiroo41-iCrkgHtppVC-8" target="RY79CGh1DefwJotHBHrP-21" edge="1">
          <mxGeometry width="50" height="50" relative="1" as="geometry">
            <mxPoint x="308" y="400" as="sourcePoint" />
            <mxPoint x="350" y="550" as="targetPoint" />
          </mxGeometry>
        </mxCell>
        <mxCell id="lQiroo41-iCrkgHtppVC-23" value="" style="endArrow=classic;html=1;rounded=0;fontColor=#E4FDE1;exitX=0.5;exitY=1;exitDx=0;exitDy=0;labelBackgroundColor=#114B5F;strokeColor=#028090;entryX=0.5;entryY=0;entryDx=0;entryDy=0;" parent="WIyWlLk6GJQsqaUBKTNV-1" source="lQiroo41-iCrkgHtppVC-10" target="lQiroo41-iCrkgHtppVC-14" edge="1">
          <mxGeometry width="50" height="50" relative="1" as="geometry">
            <mxPoint x="532" y="400" as="sourcePoint" />
            <mxPoint x="582" y="350" as="targetPoint" />
          </mxGeometry>
        </mxCell>
        <mxCell id="lQiroo41-iCrkgHtppVC-27" value="&lt;font style=&quot;font-size: 19px;&quot;&gt;&lt;b&gt;Razer Blade 15 Hyper-V Network Ver.1.0&lt;/b&gt;&lt;/font&gt;" style="text;html=1;align=center;verticalAlign=middle;resizable=0;points=[];autosize=1;strokeColor=none;fillColor=none;fontColor=#E4FDE1;" parent="WIyWlLk6GJQsqaUBKTNV-1" vertex="1">
          <mxGeometry x="224" y="80" width="370" height="20" as="geometry" />
        </mxCell>
        <mxCell id="lQiroo41-iCrkgHtppVC-28" value="Internet" style="ellipse;shape=cloud;whiteSpace=wrap;html=1;fontSize=19;" parent="WIyWlLk6GJQsqaUBKTNV-1" vertex="1">
          <mxGeometry x="284" y="800" width="260" height="170" as="geometry" />
        </mxCell>
        <mxCell id="lQiroo41-iCrkgHtppVC-31" value="&lt;font color=&quot;#769bd1&quot;&gt;DHCP&lt;/font&gt;" style="text;html=1;align=center;verticalAlign=middle;whiteSpace=wrap;rounded=0;fontColor=#E4FDE1;" parent="WIyWlLk6GJQsqaUBKTNV-1" vertex="1">
          <mxGeometry x="130" y="275" width="60" height="30" as="geometry" />
        </mxCell>
        <mxCell id="lQiroo41-iCrkgHtppVC-32" value="&lt;font color=&quot;#769bd1&quot;&gt;DHCP&lt;/font&gt;" style="text;html=1;align=center;verticalAlign=middle;whiteSpace=wrap;rounded=0;fontColor=#E4FDE1;" parent="WIyWlLk6GJQsqaUBKTNV-1" vertex="1">
          <mxGeometry x="580" y="270" width="60" height="30" as="geometry" />
        </mxCell>
        <mxCell id="lQiroo41-iCrkgHtppVC-33" value="DHCP" style="text;html=1;align=center;verticalAlign=middle;resizable=0;points=[];autosize=1;strokeColor=none;fillColor=none;fontColor=#E4FDE1;" parent="WIyWlLk6GJQsqaUBKTNV-1" vertex="1">
          <mxGeometry x="205" y="280" width="50" height="20" as="geometry" />
        </mxCell>
        <mxCell id="lQiroo41-iCrkgHtppVC-34" value="DHCP" style="text;html=1;align=center;verticalAlign=middle;resizable=0;points=[];autosize=1;strokeColor=none;fillColor=none;fontColor=#E4FDE1;" parent="WIyWlLk6GJQsqaUBKTNV-1" vertex="1">
          <mxGeometry x="669" y="280" width="50" height="20" as="geometry" />
        </mxCell>
        <mxCell id="RY79CGh1DefwJotHBHrP-0" value="" style="endArrow=classic;startArrow=classic;html=1;rounded=0;fillColor=#e6d0de;strokeColor=#FF0080;labelBackgroundColor=#114B5F;fontColor=#E4FDE1;gradientColor=#d5739d;entryX=0;entryY=0.5;entryDx=0;entryDy=0;exitX=1;exitY=0.5;exitDx=0;exitDy=0;" parent="WIyWlLk6GJQsqaUBKTNV-1" source="RY79CGh1DefwJotHBHrP-1" target="lQiroo41-iCrkgHtppVC-1" edge="1">
          <mxGeometry width="50" height="50" relative="1" as="geometry">
            <mxPoint x="430" y="160" as="sourcePoint" />
            <mxPoint x="410" y="170" as="targetPoint" />
          </mxGeometry>
        </mxCell>
        <mxCell id="RY79CGh1DefwJotHBHrP-2" value="" style="endArrow=none;startArrow=classic;html=1;rounded=0;exitX=1;exitY=0.5;exitDx=0;exitDy=0;fillColor=#e6d0de;strokeColor=#FF0080;labelBackgroundColor=#114B5F;fontColor=#E4FDE1;gradientColor=#d5739d;entryX=0;entryY=0.5;entryDx=0;entryDy=0;" parent="WIyWlLk6GJQsqaUBKTNV-1" source="lQiroo41-iCrkgHtppVC-0" target="RY79CGh1DefwJotHBHrP-1" edge="1">
          <mxGeometry width="50" height="50" relative="1" as="geometry">
            <mxPoint x="240" y="220" as="sourcePoint" />
            <mxPoint x="400" y="160" as="targetPoint" />
          </mxGeometry>
        </mxCell>
        <mxCell id="RY79CGh1DefwJotHBHrP-23" value="" style="image;html=1;image=img/lib/clip_art/networking/Router_Icon_128x128.png;rounded=0;shadow=0;glass=0;dashed=1;sketch=0;fontColor=#FFFFCC;strokeColor=default;fillColor=#67AB9F;gradientColor=#336600;" parent="WIyWlLk6GJQsqaUBKTNV-1" vertex="1">
          <mxGeometry x="622" y="730" width="80" height="80" as="geometry" />
        </mxCell>
        <mxCell id="RY79CGh1DefwJotHBHrP-24" value="" style="image;html=1;image=img/lib/clip_art/networking/Wireless_Router_128x128.png;rounded=0;shadow=0;glass=0;dashed=1;sketch=0;fontColor=#FFFFCC;strokeColor=default;fillColor=#67AB9F;gradientColor=#336600;" parent="WIyWlLk6GJQsqaUBKTNV-1" vertex="1">
          <mxGeometry x="138" y="720" width="80" height="80" as="geometry" />
        </mxCell>
        <mxCell id="RY79CGh1DefwJotHBHrP-30" value="" style="endArrow=none;dashed=1;html=1;dashPattern=1 3;strokeWidth=5;rounded=1;sketch=0;fontColor=#000000;fillColor=#F45B69;gradientColor=#ffffff;curved=0;exitX=1;exitY=0.75;exitDx=0;exitDy=0;entryX=0.07;entryY=0.4;entryDx=0;entryDy=0;entryPerimeter=0;strokeColor=#FF0080;" parent="WIyWlLk6GJQsqaUBKTNV-1" source="RY79CGh1DefwJotHBHrP-24" target="lQiroo41-iCrkgHtppVC-28" edge="1">
          <mxGeometry width="50" height="50" relative="1" as="geometry">
            <mxPoint x="220" y="700" as="sourcePoint" />
            <mxPoint x="270" y="650" as="targetPoint" />
          </mxGeometry>
        </mxCell>
        <mxCell id="RY79CGh1DefwJotHBHrP-32" value="" style="endArrow=classic;startArrow=classic;html=1;rounded=1;sketch=0;fontColor=#000000;strokeColor=#FF0080;strokeWidth=3;fillColor=#F45B69;gradientColor=#ffffff;curved=0;exitX=0.88;exitY=0.25;exitDx=0;exitDy=0;exitPerimeter=0;entryX=0;entryY=0.5;entryDx=0;entryDy=0;" parent="WIyWlLk6GJQsqaUBKTNV-1" source="lQiroo41-iCrkgHtppVC-28" target="RY79CGh1DefwJotHBHrP-23" edge="1">
          <mxGeometry width="50" height="50" relative="1" as="geometry">
            <mxPoint x="220" y="700" as="sourcePoint" />
            <mxPoint x="270" y="650" as="targetPoint" />
          </mxGeometry>
        </mxCell>
        <mxCell id="RY79CGh1DefwJotHBHrP-33" value="" style="endArrow=classic;startArrow=classic;html=1;rounded=1;sketch=0;fontColor=#000000;strokeColor=#FF0080;strokeWidth=3;fillColor=#F45B69;gradientColor=#ffffff;curved=0;entryX=0.5;entryY=1;entryDx=0;entryDy=0;exitX=0.5;exitY=0;exitDx=0;exitDy=0;" parent="WIyWlLk6GJQsqaUBKTNV-1" source="RY79CGh1DefwJotHBHrP-23" target="lQiroo41-iCrkgHtppVC-14" edge="1">
          <mxGeometry width="50" height="50" relative="1" as="geometry">
            <mxPoint x="220" y="700" as="sourcePoint" />
            <mxPoint x="270" y="650" as="targetPoint" />
          </mxGeometry>
        </mxCell>
        <mxCell id="RY79CGh1DefwJotHBHrP-34" value="" style="endArrow=classic;startArrow=classic;html=1;rounded=1;sketch=0;fontColor=#000000;strokeColor=#FF0080;strokeWidth=3;fillColor=#F45B69;gradientColor=#ffffff;curved=0;exitX=0.5;exitY=1;exitDx=0;exitDy=0;entryX=0.5;entryY=0;entryDx=0;entryDy=0;" parent="WIyWlLk6GJQsqaUBKTNV-1" source="RY79CGh1DefwJotHBHrP-21" target="RY79CGh1DefwJotHBHrP-24" edge="1">
          <mxGeometry width="50" height="50" relative="1" as="geometry">
            <mxPoint x="220" y="530" as="sourcePoint" />
            <mxPoint x="270" y="480" as="targetPoint" />
          </mxGeometry>
        </mxCell>
        <mxCell id="RY79CGh1DefwJotHBHrP-41" value="&lt;h1&gt;&lt;font color=&quot;#ffffff&quot;&gt;&lt;i&gt;Purpourse of my building this system for testing FreeBSD&lt;/i&gt;&lt;/font&gt;&lt;/h1&gt;&lt;p&gt;&lt;font color=&quot;#ffffff&quot;&gt;&lt;b&gt;&lt;i&gt;I want to carry this system (with VMs) and use &quot;on-the-spot&quot; networks and VMs should communicate with each other over a network.&lt;/i&gt;&lt;/b&gt;&lt;/font&gt;&lt;/p&gt;" style="text;html=1;strokeColor=none;fillColor=none;spacing=5;spacingTop=-20;whiteSpace=wrap;overflow=hidden;rounded=0;shadow=0;glass=0;dashed=1;sketch=0;fontColor=#000000;" parent="WIyWlLk6GJQsqaUBKTNV-1" vertex="1">
          <mxGeometry x="34" y="980" width="386" height="120" as="geometry" />
        </mxCell>
      </root>
    </mxGraphModel>
  </diagram>
</mxfile>
